<svg xmlns="http://www.w3.org/2000/svg" width="40" height="40" style="background:#0fbd8c"><g fill="none" fill-rule="evenodd"><path fill="#0fbd8c" d="M0 0h40v40H0z"/><circle cx="15.5" cy="17.5" r="1.5" fill="#fff"/><circle cx="24.5" cy="17.5" r="1.5" fill="#fff"/><path fill="#fff" fill-rule="nonzero" d="M20 9C13.925 9 9 13.925 9 20s4.925 11 11 11 11-4.925 11-11S26.075 9 20 9m0 2a9 9 0 1 1 0 18 9 9 0 0 1 0-18"/><path fill="#000" fill-opacity=".25" fill-rule="nonzero" d="M35 4a1 1 0 0 1 .993.883L36 5v6a1 1 0 0 1-1.993.117L34 11V6h-5a1 1 0 0 1-.993-.883L28 5a1 1 0 0 1 .883-.993L29 4zM5 36a1 1 0 0 1-.993-.883L4 35v-6a1 1 0 0 1 1.993-.117L6 29v5h5a1 1 0 0 1 .993.883L12 35a1 1 0 0 1-.883.993L11 36z"/><path fill="#ffbf00" d="M29.72 24.028a2.56 2.56 0 0 0 1.808-1.808l.544-2.009c.252-.948 1.6-.948 1.856 0l.54 2.009a2.56 2.56 0 0 0 1.813 1.808l2.008.544c.948.252.948 1.6 0 1.857l-2.008.54a2.56 2.56 0 0 0-1.813 1.808l-.54 2.009c-.256.952-1.604.952-1.856 0l-.544-2.009a2.56 2.56 0 0 0-1.809-1.808l-2.008-.54c-.948-.256-.948-1.605 0-1.857l2.008-.544zM5.04 6.396A1.92 1.92 0 0 0 6.396 5.04l.408-1.507c.189-.71 1.2-.71 1.392 0l.405 1.507a1.92 1.92 0 0 0 1.36 1.356l1.506.408c.71.19.71 1.2 0 1.393l-1.507.405a1.92 1.92 0 0 0-1.359 1.356l-.405 1.506c-.192.715-1.203.715-1.392 0l-.408-1.506A1.92 1.92 0 0 0 5.04 8.602l-1.507-.405c-.71-.192-.71-1.204 0-1.393z"/><path fill="#fff" fill-rule="nonzero" d="M22.168 21.945a1 1 0 1 1 1.664 1.11C22.974 24.342 21.658 25 20 25s-2.974-.658-3.832-1.945a1 1 0 1 1 1.664-1.11C18.307 22.658 18.992 23 20 23s1.693-.342 2.168-1.055"/><path fill="#000" fill-opacity=".5" fill-rule="nonzero" d="m31.589 20.083-.544 2.006a2.06 2.06 0 0 1-1.457 1.457l-2.008.544c-1.44.383-1.44 2.432 0 2.821l2.01.54a2.06 2.06 0 0 1 1.455 1.456l.544 2.01c.383 1.445 2.433 1.445 2.822-.001l.54-2.009a2.06 2.06 0 0 1 1.459-1.455l2.009-.54c1.442-.39 1.442-2.44-.002-2.823l-2.006-.543a2.06 2.06 0 0 1-1.46-1.455l-.54-2.01c-.39-1.442-2.439-1.442-2.822.002m1.856.259.54 2.008a3.06 3.06 0 0 0 2.165 2.16l2.008.545c.456.12.456.768 0 .891l-2.007.54a3.06 3.06 0 0 0-2.166 2.162l-.54 2.008c-.123.458-.769.458-.89.002l-.545-2.011a3.06 3.06 0 0 0-2.162-2.161l-2.007-.54c-.455-.123-.455-.77-.001-.89l2.01-.545a3.06 3.06 0 0 0 2.16-2.162l.544-2.007c.122-.456.769-.456.891 0"/><path fill="#000" fill-opacity=".4" fill-rule="nonzero" d="m6.32 3.405-.407 1.504c-.13.49-.511.87-1.004 1.005l-1.506.408c-1.204.32-1.204 2.032 0 2.357l1.507.405c.49.131.872.514 1.003 1.003l.408 1.508c.32 1.207 2.033 1.207 2.358 0l.405-1.507a1.42 1.42 0 0 1 1.005-1.003l1.508-.406c1.204-.325 1.204-2.037-.002-2.358l-1.504-.408a1.42 1.42 0 0 1-1.007-1.002L8.68 3.403c-.325-1.204-2.038-1.204-2.358.002zm1.393.259.405 1.506A2.42 2.42 0 0 0 9.83 6.879l1.507.408c.218.058.218.368 0 .427l-1.505.405a2.42 2.42 0 0 0-1.713 1.71l-.405 1.506c-.059.22-.368.22-.426.001l-.409-1.509a2.42 2.42 0 0 0-1.71-1.708l-1.505-.405c-.217-.059-.217-.37-.001-.427L5.17 6.88a2.42 2.42 0 0 0 1.709-1.71l.407-1.505c.059-.218.369-.218.427 0z"/></g></svg>