<svg width="20" height="20" viewBox="0 0 20 20" fill="none" xmlns="http://www.w3.org/2000/svg">
<path d="M9.32937 0.0192242C14.0811 -0.275342 18.4703 2.84337 19.6573 7.44106C19.9157 8.44089 20.3368 10.4906 19.5285 11.2666C18.4881 12.2656 17.5117 11.255 16.445 11.0289C13.1625 10.3352 10.3644 13.1263 10.986 16.3957C11.1966 17.5009 12.3057 18.5838 11.1573 19.6083C10.2749 20.3958 7.74598 19.8105 6.68164 19.4575C-3.48509 16.085 -1.61093 0.696803 9.32937 0.0192242ZM9.38413 2.3473C6.94541 2.3173 7.13206 6.18973 9.75125 5.74596C11.6061 5.4314 11.5537 2.37345 9.38413 2.3473ZM13.3831 5.33064C11.5845 7.03728 14.2006 9.85758 16.0578 8.11326C17.8927 6.39047 15.2403 3.56786 13.3831 5.33064ZM4.15654 5.47447C3.79559 5.54907 3.3552 5.96669 3.20943 6.29971C2.61017 7.67333 3.94984 8.96158 5.30957 8.31707C6.83049 7.59565 6.10551 5.07146 4.15654 5.47524V5.47447ZM3.5403 10.3983C2.00781 10.6551 2.22762 13.1501 3.8974 13.0663C5.72451 12.9748 5.53709 10.0629 3.5403 10.3983Z" fill="white"/>
</svg>
