<svg width="20" height="20" viewBox="0 0 20 20" fill="none" xmlns="http://www.w3.org/2000/svg">
<path d="M8.0918 6.49121C8.78215 6.49121 9.3418 7.05086 9.3418 7.74121C9.3418 8.43157 8.78215 8.99121 8.0918 8.99121C7.40145 8.9912 6.8418 8.43156 6.8418 7.74121C6.8418 7.05086 7.40145 6.49122 8.0918 6.49121Z" fill="#575E75"/>
<path fill-rule="evenodd" clip-rule="evenodd" d="M14.2061 3.00488C16.3194 3.11211 18 4.85996 18 7V13C18 15.2091 16.2091 17 14 17H6C3.86003 16.9999 2.11211 15.3194 2.00488 13.2061L2 13V7C2 4.79091 3.79093 3.00008 6 3H14L14.2061 3.00488ZM14.6426 9.09473C14.5496 8.97672 14.3743 8.96652 14.2686 9.07324L9.61621 13.7695C8.92322 14.4689 7.78927 14.4592 7.1084 13.748L5.87012 12.4551C5.77901 12.3603 5.63007 12.352 5.5293 12.4365L3.69629 13.9736C4.07592 14.8707 4.96467 15.4999 6 15.5H14C15.3807 15.5 16.5 14.3807 16.5 13V11.4541L14.6426 9.09473ZM6 4.5C4.61936 4.50008 3.5 5.61934 3.5 7V12.1807L4.56445 11.2881C5.27073 10.6953 6.31639 10.752 6.9541 11.418L8.19238 12.7109C8.28961 12.8123 8.45085 12.8135 8.5498 12.7139L13.2031 8.01758C13.9434 7.27034 15.1707 7.34048 15.8213 8.16699L16.5 9.02832V7C16.5 5.61929 15.3807 4.5 14 4.5H6Z" fill="#575E75"/>
</svg>
